<svg width="18" height="19" viewBox="0 0 18 19" fill="none" xmlns="http://www.w3.org/2000/svg">
<g id="vuesax/bulk/arrow-3">
<g id="arrow-3">
<g id="arrow-3_2">
<path id="Vector" d="M8.23509 5.1425L5.45261 2.35999C5.40012 2.30749 5.33261 2.2625 5.25761 2.2325C5.25011 2.2325 5.24259 2.23249 5.23509 2.22499C5.17509 2.20249 5.10758 2.1875 5.04008 2.1875C4.89008 2.1875 4.7476 2.24748 4.6426 2.35248L1.85258 5.1425C1.63508 5.36 1.63508 5.72 1.85258 5.9375C2.07008 6.155 2.43012 6.155 2.64762 5.9375L4.48509 4.09999V16.25C4.48509 16.5575 4.74009 16.8125 5.04759 16.8125C5.35509 16.8125 5.61009 16.5575 5.61009 16.25V4.1075L7.44009 5.9375C7.55259 6.05 7.69511 6.10248 7.83761 6.10248C7.98011 6.10248 8.12259 6.05 8.23509 5.9375C8.45259 5.72 8.45259 5.3675 8.23509 5.1425Z" fill="#70CA62"/>
<path id="Vector_2" opacity="0.4" d="M16.1474 13.0625C15.9299 12.845 15.5699 12.845 15.3524 13.0625L13.5149 14.9V2.75C13.5149 2.4425 13.2599 2.1875 12.9524 2.1875C12.6449 2.1875 12.3899 2.4425 12.3899 2.75V14.8925L10.5599 13.0625C10.3424 12.845 9.98243 12.845 9.76493 13.0625C9.54743 13.28 9.54743 13.64 9.76493 13.8575L12.5474 16.64C12.5999 16.6925 12.6674 16.7375 12.7424 16.7675C12.7499 16.7675 12.7574 16.7675 12.7649 16.775C12.8249 16.7975 12.8924 16.8125 12.9599 16.8125C13.1099 16.8125 13.2524 16.7525 13.3574 16.6475L16.1474 13.8575C16.3649 13.6325 16.3649 13.28 16.1474 13.0625Z" fill="#292D32"/>
</g>
</g>
</g>
</svg>
