<svg width="25" height="25" viewBox="0 0 25 25" fill="none" xmlns="http://www.w3.org/2000/svg">
<path d="M22.1265 18.4082C22.1265 18.7682 22.0465 19.1382 21.8765 19.4982C21.7065 19.8582 21.4865 20.1982 21.1965 20.5182C20.7065 21.0582 20.1665 21.4482 19.5565 21.6982C18.9565 21.9482 18.3065 22.0782 17.6065 22.0782C16.5865 22.0782 15.4965 21.8382 14.3465 21.3482C13.1965 20.8582 12.0465 20.1982 10.9065 19.3682C9.75649 18.5282 8.66649 17.5982 7.62649 16.5682C6.59649 15.5282 5.66649 14.4382 4.83649 13.2982C4.01649 12.1582 3.35649 11.0182 2.87649 9.88819C2.39649 8.74819 2.15649 7.65819 2.15649 6.61819C2.15649 5.93819 2.27649 5.28819 2.51649 4.68819C2.75649 4.07819 3.13649 3.51819 3.66649 3.01819C4.30649 2.38819 5.00649 2.07819 5.74649 2.07819C6.02649 2.07819 6.30649 2.13819 6.55649 2.25819C6.81649 2.37819 7.04649 2.55819 7.22649 2.81819L9.54649 6.08819C9.72649 6.33819 9.85649 6.56819 9.94649 6.78819C10.0365 6.99819 10.0865 7.20819 10.0865 7.39819C10.0865 7.63819 10.0165 7.87819 9.87649 8.10819C9.74649 8.33819 9.55649 8.57819 9.31649 8.81819L8.55649 9.60819C8.44649 9.71819 8.39649 9.84819 8.39649 10.0082C8.39649 10.0882 8.40649 10.1582 8.42649 10.2382C8.45649 10.3182 8.48649 10.3782 8.50649 10.4382C8.68649 10.7682 8.99649 11.1982 9.43649 11.7182C9.88649 12.2382 10.3665 12.7682 10.8865 13.2982C11.4265 13.8282 11.9465 14.3182 12.4765 14.7682C12.9965 15.2082 13.4265 15.5082 13.7665 15.6882C13.8165 15.7082 13.8765 15.7382 13.9465 15.7682C14.0265 15.7982 14.1065 15.8082 14.1965 15.8082C14.3665 15.8082 14.4965 15.7482 14.6065 15.6382L15.3665 14.8882C15.6165 14.6382 15.8565 14.4482 16.0865 14.3282C16.3165 14.1882 16.5465 14.1182 16.7965 14.1182C16.9865 14.1182 17.1865 14.1582 17.4065 14.2482C17.6265 14.3382 17.8565 14.4682 18.1065 14.6382L21.4165 16.9882C21.6765 17.1682 21.8565 17.3782 21.9665 17.6282C22.0665 17.8782 22.1265 18.1282 22.1265 18.4082Z" stroke="black" stroke-width="1.5" stroke-miterlimit="10"/>
<path d="M18.6565 9.07819C18.6565 8.47819 18.1865 7.55819 17.4865 6.80819C16.8465 6.11819 15.9965 5.57819 15.1565 5.57819" stroke="black" stroke-width="1.5" stroke-linecap="round" stroke-linejoin="round"/>
<path d="M22.1565 9.07819C22.1565 5.20819 19.0265 2.07819 15.1565 2.07819" stroke="black" stroke-width="1.5" stroke-linecap="round" stroke-linejoin="round"/>
</svg>
