<svg width="25" height="24" viewBox="0 0 25 24" fill="none" xmlns="http://www.w3.org/2000/svg">
<path d="M22.0288 18.3367C22.0288 18.6967 21.9488 19.0667 21.7788 19.4267C21.6088 19.7867 21.3888 20.1267 21.0988 20.4467C20.6088 20.9867 20.0688 21.3767 19.4588 21.6267C18.8588 21.8767 18.2088 22.0067 17.5088 22.0067C16.4888 22.0067 15.3988 21.7667 14.2488 21.2767C13.0988 20.7867 11.9488 20.1267 10.8088 19.2967C9.65884 18.4567 8.56884 17.5267 7.52884 16.4967C6.49884 15.4567 5.56884 14.3667 4.73884 13.2267C3.91884 12.0867 3.25884 10.9467 2.77884 9.81671C2.29884 8.67671 2.05884 7.58671 2.05884 6.54671C2.05884 5.86671 2.17884 5.21671 2.41884 4.61671C2.65884 4.00671 3.03884 3.44671 3.56884 2.94671C4.20884 2.31671 4.90884 2.00671 5.64884 2.00671C5.92884 2.00671 6.20884 2.06671 6.45884 2.18671C6.71884 2.30671 6.94884 2.48671 7.12884 2.74671L9.44884 6.01671C9.62884 6.26671 9.75884 6.49671 9.84884 6.71671C9.93884 6.92671 9.98884 7.13671 9.98884 7.32671C9.98884 7.56671 9.91884 7.80671 9.77884 8.03671C9.64884 8.26671 9.45884 8.50671 9.21884 8.74671L8.45884 9.53671C8.34884 9.64671 8.29884 9.77671 8.29884 9.93671C8.29884 10.0167 8.30884 10.0867 8.32884 10.1667C8.35884 10.2467 8.38884 10.3067 8.40884 10.3667C8.58884 10.6967 8.89884 11.1267 9.33884 11.6467C9.78884 12.1667 10.2688 12.6967 10.7888 13.2267C11.3288 13.7567 11.8488 14.2467 12.3788 14.6967C12.8988 15.1367 13.3288 15.4367 13.6688 15.6167C13.7188 15.6367 13.7788 15.6667 13.8488 15.6967C13.9288 15.7267 14.0088 15.7367 14.0988 15.7367C14.2688 15.7367 14.3988 15.6767 14.5088 15.5667L15.2688 14.8167C15.5188 14.5667 15.7588 14.3767 15.9888 14.2567C16.2188 14.1167 16.4488 14.0467 16.6988 14.0467C16.8888 14.0467 17.0888 14.0867 17.3088 14.1767C17.5288 14.2667 17.7588 14.3967 18.0088 14.5667L21.3188 16.9167C21.5788 17.0967 21.7588 17.3067 21.8688 17.5567C21.9688 17.8067 22.0288 18.0567 22.0288 18.3367Z" stroke="white" stroke-width="1.5" stroke-miterlimit="10"/>
<path d="M18.5588 9.00671C18.5588 8.40671 18.0888 7.48671 17.3888 6.73671C16.7488 6.04671 15.8988 5.50671 15.0588 5.50671" stroke="white" stroke-width="1.5" stroke-linecap="round" stroke-linejoin="round"/>
<path d="M22.0588 9.00671C22.0588 5.13671 18.9288 2.00671 15.0588 2.00671" stroke="white" stroke-width="1.5" stroke-linecap="round" stroke-linejoin="round"/>
</svg>
