<svg width="20" height="21" viewBox="0 0 20 21" fill="none" xmlns="http://www.w3.org/2000/svg">
<path d="M8.75 6.75V5.5H1.25C0.56125 5.5 0 6.06125 0 6.75V9.25H9.01375C8.84 8.48625 8.75 7.66375 8.75 6.75Z" fill="#058430"/>
<path d="M19.9487 11.75C19.0962 13.0638 17.7962 14.1812 15.9338 15.2512C15.6475 15.415 15.325 15.5 15 15.5C14.675 15.5 14.3525 15.415 14.07 15.2537C12.2075 14.1812 10.9075 13.0625 10.0538 11.75H0V18C0 18.69 0.56125 19.25 1.25 19.25H18.75C19.44 19.25 20 18.69 20 18V11.75H19.9487ZM5.625 15.5H3.125C2.78 15.5 2.5 15.22 2.5 14.875C2.5 14.53 2.78 14.25 3.125 14.25H5.625C5.97 14.25 6.25 14.53 6.25 14.875C6.25 15.22 5.97 15.5 5.625 15.5Z" fill="#058430"/>
<path d="M19.6212 3.67563L15.2462 1.80063C15.0875 1.73312 14.9113 1.73312 14.7525 1.80063L10.3775 3.67563C10.1488 3.77313 10 3.99937 10 4.24937V6.74937C10 10.1881 11.2713 12.1981 14.6888 14.1669C14.785 14.2219 14.8925 14.2494 15 14.2494C15.1075 14.2494 15.215 14.2219 15.3112 14.1669C18.7287 12.2031 20 10.1931 20 6.74937V4.24937C20 3.99937 19.8512 3.77313 19.6212 3.67563ZM17.3637 6.51562L14.8637 9.64062C14.7437 9.78813 14.5637 9.87438 14.375 9.87438C14.3663 9.87438 14.3563 9.87438 14.3488 9.87438C14.15 9.86563 13.9662 9.76313 13.855 9.59688L12.605 7.72188C12.4137 7.43438 12.4912 7.04688 12.7787 6.85563C13.0637 6.66563 13.4525 6.74063 13.645 7.02938L14.4212 8.19312L16.3863 5.73562C16.6025 5.46687 16.9963 5.42438 17.265 5.63813C17.535 5.85188 17.5775 6.24562 17.3637 6.51562Z" fill="#058430"/>
</svg>
