<svg width="27" height="30" viewBox="0 0 27 30" fill="none" xmlns="http://www.w3.org/2000/svg">
<path d="M6.58776 13.14L4.21876 12.3112C3.96424 12.2198 3.68362 12.3568 3.59225 12.6114L0.694629 20.88C0.603263 21.1346 0.740312 21.4152 0.994833 21.5065L3.36383 22.3354C3.61836 22.4267 3.89898 22.2897 3.99035 22.0352L6.88797 13.7665C6.97934 13.512 6.84229 13.2314 6.58776 13.14ZM7.37091 14.3669L4.74738 21.859L6.00694 22.7726C8.69572 25.4157 9.11992 25.977 11.7369 28.594C12.8398 29.6969 14.2299 28.4569 13.7992 27.8565L11.6912 25.8465C11.5607 25.7225 11.5607 25.5201 11.6847 25.3896C11.8087 25.2591 12.0175 25.2591 12.1481 25.3831L14.5366 27.6738L14.7977 27.9152L15.0457 28.1371C15.7766 28.7963 17.3037 27.478 16.625 26.8123L14.2364 24.5216C14.1059 24.3976 14.1059 24.1888 14.2299 24.0583C14.3539 23.9278 14.5628 23.9278 14.6933 24.0518L17.0819 26.3424C17.5974 26.8319 18.3479 26.2902 18.609 25.7812C18.7787 25.4614 18.7721 25.1481 18.5176 24.8871L16.129 22.5964C15.9985 22.4724 15.9985 22.2636 16.1225 22.1331C16.2465 22.0025 16.4553 22.0025 16.5859 22.1265L18.9744 24.4172L18.994 24.4368C19.7054 25.1481 21.0302 23.6928 20.5016 23.1642L17.1797 19.8685C16.1551 18.8504 15.2545 18.5371 14.1581 19.2811C12.5984 20.3384 11.1561 20.2339 10.2163 19.7249C9.66812 19.4247 9.19171 18.9287 9.08076 18.3479C8.9894 17.8649 9.15255 17.4081 9.64202 17.1144L12.3765 15.4894L7.37091 14.3669ZM22.7139 21.6436L20.1622 14.3669C18.6351 14.641 13.7666 15.2871 13.3489 15.6395C13.3163 15.6721 13.2836 15.6982 13.2445 15.7178L9.9618 17.6692C9.5376 17.9171 9.6877 18.374 9.95527 18.6938C10.0988 18.8634 10.2881 19.0201 10.5165 19.1441C11.2801 19.5552 12.4613 19.627 13.7796 18.7329C15.1566 17.7997 16.377 18.1586 17.6235 19.3986L20.854 22.6095L22.7139 21.6436ZM23.3144 12.3112L20.9454 13.14C20.6908 13.2314 20.5538 13.512 20.6451 13.7665L23.4122 21.6762C23.5167 21.9438 23.5362 22.1918 23.7908 22.3158C23.9082 22.3745 24.0388 22.3811 24.1693 22.3354L26.5383 21.5065C26.7928 21.4152 26.9299 21.1346 26.8385 20.88L23.9409 12.6114C23.856 12.3568 23.5689 12.2198 23.3144 12.3112ZM15.2545 2.88737L13.7666 0.59668L12.2916 2.88084C12.246 2.95263 12.1807 3.01136 12.0959 3.03094L9.45928 3.73577L11.1757 5.85025C11.2279 5.90899 11.2605 5.99383 11.254 6.07867L11.1039 8.80661L13.6556 7.82116C13.7274 7.79505 13.8122 7.78853 13.8906 7.82116L16.4358 8.80661L16.2922 6.07867C16.2857 6.00035 16.3118 5.92204 16.364 5.85678L18.0869 3.73577L15.4503 3.03094C15.3655 3.00484 15.3002 2.95916 15.2545 2.88737ZM24.2541 5.74583L23.5885 4.72122L22.9293 5.73278C22.8902 5.80457 22.8184 5.8633 22.7335 5.88288L21.5523 6.19614L22.3158 7.13591C22.3681 7.19464 22.4007 7.27948 22.3942 7.36432L22.3289 8.58472L23.471 8.14746C23.5428 8.12136 23.6276 8.11483 23.7059 8.14746L24.848 8.58472L24.7827 7.36432C24.7762 7.28601 24.8023 7.2077 24.8545 7.14243L25.6246 6.19614L24.4434 5.88288C24.3716 5.8633 24.2998 5.81762 24.2541 5.74583ZM4.61033 5.74583L3.94466 4.72122L3.28552 5.73278C3.24636 5.80457 3.17458 5.8633 3.08974 5.88288L1.9085 6.19614L2.67206 7.14243C2.72427 7.20117 2.7569 7.28601 2.75037 7.37085L2.68511 8.59124L3.82719 8.15399C3.89898 8.12789 3.98382 8.12136 4.06214 8.15399L5.20422 8.59124L5.13895 7.37085C5.13243 7.29254 5.15853 7.21422 5.21074 7.14896L5.98083 6.20266L4.79959 5.88941C4.72128 5.8633 4.65602 5.81762 4.61033 5.74583Z" fill="#1492E6"/>
</svg>
