<svg width="25" height="25" viewBox="0 0 25 25" fill="none" xmlns="http://www.w3.org/2000/svg">
<path d="M16.3452 22.5272H12.5452C11.9852 22.5272 10.7652 22.3572 10.1152 21.7072L7.08517 19.3672L8.00517 18.1772L11.1052 20.5772C11.3552 20.8172 11.9852 21.0172 12.5452 21.0172H16.3452C17.2452 21.0172 18.2152 20.2972 18.4152 19.4872L20.8352 12.1372C20.9952 11.6972 20.9652 11.2972 20.7552 11.0072C20.5352 10.6972 20.1352 10.5172 19.6452 10.5172H15.6452C15.1252 10.5172 14.6452 10.2972 14.3152 9.91724C13.9752 9.52724 13.8252 9.00724 13.9052 8.46724L14.4052 5.25724C14.5252 4.69724 14.1452 4.06724 13.6052 3.88724C13.1152 3.70724 12.4852 3.96724 12.2652 4.28724L8.16517 10.3872L6.92517 9.55724L11.0252 3.45724C11.6552 2.51724 13.0352 2.06724 14.1152 2.47724C15.3652 2.88724 16.1652 4.26724 15.8852 5.54724L15.3952 8.69724C15.3852 8.76724 15.3852 8.86724 15.4552 8.94724C15.5052 8.99724 15.5752 9.02724 15.6552 9.02724H19.6552C20.6352 9.02724 21.4852 9.43724 21.9852 10.1472C22.4752 10.8372 22.5752 11.7472 22.2552 12.6272L19.8652 19.9072C19.4952 21.3572 17.9552 22.5272 16.3452 22.5272Z" fill="#058430"/>
<path d="M5.44519 21.4271H4.44519C2.59519 21.4271 1.69519 20.5571 1.69519 18.7771V8.97715C1.69519 7.19715 2.59519 6.32715 4.44519 6.32715H5.44519C7.29519 6.32715 8.19519 7.19715 8.19519 8.97715V18.7771C8.19519 20.5571 7.29519 21.4271 5.44519 21.4271ZM4.44519 7.82715C3.35519 7.82715 3.19519 8.08715 3.19519 8.97715V18.7771C3.19519 19.6671 3.35519 19.9271 4.44519 19.9271H5.44519C6.53519 19.9271 6.69519 19.6671 6.69519 18.7771V8.97715C6.69519 8.08715 6.53519 7.82715 5.44519 7.82715H4.44519Z" fill="#058430"/>
</svg>
