<svg width="24" height="24" viewBox="0 0 24 24" fill="none" xmlns="http://www.w3.org/2000/svg">
<g id="point 1">
<g id="Layer 126">
<path id="Vector" d="M10 2C8.02219 2 6.08879 2.58649 4.4443 3.6853C2.79981 4.78412 1.51809 6.3459 0.761209 8.17317C0.00433284 10.0004 -0.193701 12.0111 0.192152 13.9509C0.578004 15.8907 1.53041 17.6725 2.92894 19.0711C4.32746 20.4696 6.10929 21.422 8.0491 21.8079C9.98891 22.1937 11.9996 21.9957 13.8268 21.2388C15.6541 20.4819 17.2159 19.2002 18.3147 17.5557C19.4135 15.9112 20 13.9778 20 12C20 10.6868 19.7413 9.38642 19.2388 8.17317C18.7363 6.95991 17.9997 5.85752 17.0711 4.92893C16.1425 4.00035 15.0401 3.26375 13.8268 2.7612C12.6136 2.25866 11.3132 2 10 2ZM15.68 11.54L13.55 13.72L14.05 16.82C14.0846 17.0084 14.0644 17.2029 13.9917 17.3802C13.9191 17.5574 13.797 17.7101 13.64 17.82C13.4858 17.927 13.3046 17.9884 13.1172 17.9972C12.9297 18.006 12.7436 17.962 12.58 17.87L10 16.42L7.4 17.85C7.25458 17.9356 7.08877 17.9805 6.92 17.98C6.71269 17.9816 6.51 17.9187 6.34 17.8C6.18304 17.6901 6.06096 17.5374 5.98827 17.3602C5.91559 17.1829 5.89536 16.9884 5.93 16.8L6.44 13.7L4.3 11.54C4.17064 11.4082 4.08031 11.2431 4.03904 11.063C3.99778 10.883 4.00718 10.695 4.06621 10.52C4.12524 10.345 4.23159 10.1897 4.37347 10.0715C4.51535 9.95322 4.68722 9.87655 4.87 9.85L7.78 9.4L9.09 6.62C9.16436 6.43894 9.29022 6.28368 9.45198 6.17347C9.61374 6.06326 9.80429 6.00294 10 6C10.1902 5.99864 10.3768 6.05154 10.538 6.1525C10.6992 6.25346 10.8282 6.39829 10.91 6.57L12.21 9.4L15.12 9.85C15.3021 9.8772 15.4732 9.95416 15.6143 10.0724C15.7555 10.1906 15.8613 10.3455 15.92 10.52C15.9783 10.6956 15.9867 10.8839 15.9443 11.064C15.9019 11.244 15.8104 11.4088 15.68 11.54Z" fill="black"/>
</g>
</g>
</svg>
