<svg width="30" height="36" viewBox="0 0 30 36" fill="none" xmlns="http://www.w3.org/2000/svg">
<path d="M24.3826 23.8483C22.7461 23.8483 21.2718 24.555 20.2485 25.6792L11.0444 19.9786C11.2901 19.3496 11.4264 18.6664 11.4264 17.9516C11.4264 17.2365 11.2901 16.5533 11.0444 15.9245L20.2485 10.2237C21.2718 11.3479 22.7461 12.0548 24.3826 12.0548C27.4653 12.0548 29.9731 9.547 29.9731 6.4643C29.9731 3.38161 27.4653 0.874023 24.3826 0.874023C21.2999 0.874023 18.7921 3.38187 18.7921 6.46457C18.7921 7.17934 18.9286 7.86259 19.1741 8.49164L9.97029 14.1921C8.94698 13.068 7.47261 12.361 5.83615 12.361C2.75345 12.361 0.245605 14.8691 0.245605 17.9516C0.245605 21.0343 2.75345 23.5421 5.83615 23.5421C7.47261 23.5421 8.94698 22.8354 9.97029 21.711L19.1741 27.4115C18.9286 28.0406 18.7921 28.7238 18.7921 29.4388C18.7921 32.5213 21.2999 35.0291 24.3826 35.0291C27.4653 35.0291 29.9731 32.5213 29.9731 29.4388C29.9731 26.3561 27.4653 23.8483 24.3826 23.8483ZM20.8306 6.46457C20.8306 4.50603 22.4241 2.91256 24.3826 2.91256C26.3411 2.91256 27.9346 4.50603 27.9346 6.46457C27.9346 8.4231 26.3411 10.0166 24.3826 10.0166C22.4241 10.0166 20.8306 8.4231 20.8306 6.46457ZM5.83615 21.5036C3.87735 21.5036 2.28388 19.9101 2.28388 17.9516C2.28388 15.993 3.87735 14.3996 5.83615 14.3996C7.79469 14.3996 9.38789 15.993 9.38789 17.9516C9.38789 19.9101 7.79469 21.5036 5.83615 21.5036ZM20.8306 29.4386C20.8306 27.48 22.4241 25.8866 24.3826 25.8866C26.3411 25.8866 27.9346 27.48 27.9346 29.4386C27.9346 31.3971 26.3411 32.9906 24.3826 32.9906C22.4241 32.9906 20.8306 31.3971 20.8306 29.4386Z" fill="black"/>
</svg>
