<svg width="22" height="23" viewBox="0 0 22 23" fill="none" xmlns="http://www.w3.org/2000/svg">
<path d="M11.0001 1.87305C5.69168 1.87305 1.37329 6.19158 1.37329 11.4998C1.37329 16.8081 5.69168 21.1268 11.0001 21.1268C16.3081 21.1268 20.6269 16.8081 20.6269 11.4998C20.6269 6.19158 16.3081 1.87305 11.0001 1.87305ZM13.7209 7.9502C13.7209 8.04508 13.6441 8.12191 13.549 8.12208L12.4547 8.12277C11.7326 8.12277 11.6006 8.40395 11.6006 8.95773V10.1065H13.4775C13.5268 10.1065 13.5739 10.1279 13.6064 10.165C13.6389 10.2021 13.654 10.2514 13.648 10.3004L13.3807 12.3686C13.3697 12.4544 13.2965 12.5185 13.2102 12.5185H11.6006V17.6539C11.6006 17.749 11.5238 17.8258 11.4287 17.8258H9.29335C9.19831 17.8258 9.12148 17.749 9.12148 17.6539V12.5185H7.5067C7.41165 12.5185 7.33482 12.4416 7.33482 12.3466V10.2784C7.33482 10.1834 7.41165 10.1065 7.5067 10.1065H9.12148V8.75303C9.12148 6.96038 10.2064 5.84697 11.9531 5.84697C12.7041 5.84697 13.3677 5.90283 13.5715 5.92981C13.6571 5.94116 13.7209 6.01403 13.7209 6.10014V7.9502Z" fill="#058430"/>
</svg>
