<svg width="25" height="25" viewBox="0 0 25 25" fill="none" xmlns="http://www.w3.org/2000/svg">
<path d="M18.5 19.1603H17.74C16.94 19.1603 16.18 19.4703 15.62 20.0303L13.91 21.7203C13.13 22.4903 11.86 22.4903 11.08 21.7203L9.37 20.0303C8.81 19.4703 8.04 19.1603 7.25 19.1603H6.5C4.84 19.1603 3.5 17.8303 3.5 16.1903V5.27029C3.5 3.63029 4.84 2.30029 6.5 2.30029H18.5C20.16 2.30029 21.5 3.63029 21.5 5.27029V16.1803C21.5 17.8203 20.16 19.1603 18.5 19.1603Z" stroke="#292D32" stroke-width="1.5" stroke-miterlimit="10" stroke-linecap="round" stroke-linejoin="round"/>
<path d="M12.5701 9.2501C12.5301 9.2501 12.47 9.2501 12.42 9.2501C11.37 9.2101 10.54 8.3601 10.54 7.3001C10.54 6.2201 11.4101 5.3501 12.4901 5.3501C13.5701 5.3501 14.4401 6.2301 14.4401 7.3001C14.4501 8.3601 13.6201 9.2201 12.5701 9.2501Z" stroke="#292D32" stroke-width="1.5" stroke-linecap="round" stroke-linejoin="round"/>
<path d="M9.74994 12.2603C8.41994 13.1503 8.41994 14.6003 9.74994 15.4903C11.2599 16.5003 13.7399 16.5003 15.2499 15.4903C16.5799 14.6003 16.5799 13.1503 15.2499 12.2603C13.7399 11.2603 11.2699 11.2603 9.74994 12.2603Z" stroke="#292D32" stroke-width="1.5" stroke-linecap="round" stroke-linejoin="round"/>
</svg>
