<svg width="24" height="25" viewBox="0 0 24 25" fill="none" xmlns="http://www.w3.org/2000/svg">
<g id="taka 1">
<g id="Currency">
<path id="Taka" d="M9.29922 3.77132C9.66953 4.31507 10.0023 5.19163 10.0023 6.48538V10.6854H11.1227L13.0023 12.6026H10.0023V18.0401C10.0023 18.4666 10.1617 18.851 10.4805 19.1979C10.7992 19.5448 11.3195 19.7182 12.0414 19.7182C12.9742 19.7182 13.9586 19.1979 14.9992 18.1573C16.0633 17.0932 16.6258 16.001 16.6773 14.8807L16.1992 14.9229C14.493 14.9229 13.6398 14.0182 13.6398 12.2041C13.6398 11.5901 13.8414 11.0463 14.2398 10.5635C14.6383 10.0854 15.3039 9.84163 16.2367 9.84163C17.2211 9.84163 18.0508 10.2682 18.7164 11.1213C19.4102 11.9744 19.757 13.0151 19.757 14.2385C19.757 16.0526 18.9836 17.7823 17.4367 19.4369C15.918 21.0869 13.0117 21.9166 11.9992 21.9166C10.3773 21.9166 9.75391 21.5979 9.22422 21.2369C8.69453 20.8713 8.00078 20.0088 8.00078 18.9213V12.6026H6.08359L4.24609 10.6854H8.00547V6.88851C8.00547 6.04007 7.15703 5.57601 6.60391 5.52913C6.26641 5.50101 5.89609 5.59476 5.76484 5.73069C5.52578 5.33226 5.29609 4.84944 5.08516 4.29163C5.08516 4.29163 5.27266 3.61663 5.88672 3.21351C6.30859 2.93694 6.70703 2.85257 7.32578 2.85257C8.50234 2.84788 9.04609 3.40101 9.29922 3.77132Z" fill="white"/>
</g>
</g>
</svg>
