<svg width="25" height="25" viewBox="0 0 25 25" fill="none" xmlns="http://www.w3.org/2000/svg">
<g id="vuesax/linear/card-tick">
<path id="Vector" d="M2.33984 10.5H22.3398" stroke="white" stroke-width="1.5" stroke-miterlimit="10" stroke-linecap="round" stroke-linejoin="round"/>
<path id="Vector_2" d="M11.8881 20.9998H6.77814C3.22814 20.9998 2.32812 20.1198 2.32812 16.6098V8.38977C2.32812 5.20977 3.06815 4.18977 5.85815 4.02977C6.13815 4.01977 6.44814 4.00977 6.77814 4.00977H17.8881C21.4381 4.00977 22.3381 4.88977 22.3381 8.39977V12.8098" stroke="white" stroke-width="1.5" stroke-linecap="round" stroke-linejoin="round"/>
<path id="Vector_3" d="M6.33984 16.5H10.3398" stroke="white" stroke-width="1.5" stroke-miterlimit="10" stroke-linecap="round" stroke-linejoin="round"/>
<path id="Vector_4" d="M22.3398 18.5C22.3398 19.25 22.1298 19.96 21.7598 20.56C21.0698 21.72 19.7998 22.5 18.3398 22.5C16.8798 22.5 15.6099 21.72 14.9199 20.56C14.5499 19.96 14.3398 19.25 14.3398 18.5C14.3398 16.29 16.1298 14.5 18.3398 14.5C20.5498 14.5 22.3398 16.29 22.3398 18.5Z" stroke="white" stroke-width="1.5" stroke-miterlimit="10" stroke-linecap="round" stroke-linejoin="round"/>
<path id="Vector_5" d="M16.7812 18.4995L17.7712 19.4895L19.9012 17.5195" stroke="white" stroke-width="1.5" stroke-linecap="round" stroke-linejoin="round"/>
</g>
</svg>
