<svg width="25" height="24" viewBox="0 0 25 24" fill="none" xmlns="http://www.w3.org/2000/svg">
<g id="path" clip-path="url(#clip0_6739_121)">
<path id="Vector" d="M20.2901 7.26606L17.2601 4.23606C16.1101 3.08606 14.5401 3.14606 13.7701 4.37606L12.0801 7.04606L17.4801 12.4461L20.1501 10.7561C21.3001 10.0261 21.3701 8.34606 20.2901 7.26606Z" stroke="white" stroke-width="1.5" stroke-linecap="round" stroke-linejoin="round"/>
<path id="Vector_2" d="M12.08 7.04605L8.14999 6.80605C5.95999 6.67605 5.18999 7.34605 4.94999 9.43605L3.96999 17.7561C3.75999 19.5061 5.02999 20.7661 6.76999 20.5561L15.09 19.5761C17.18 19.3261 17.94 18.5661 17.72 16.3761L17.49 12.4461" stroke="white" stroke-width="1.5" stroke-linecap="round" stroke-linejoin="round"/>
<path id="Vector_3" d="M5.11035 19.4161L8.14035 16.3761" stroke="white" stroke-width="1.5" stroke-linecap="round" stroke-linejoin="round"/>
</g>
<defs>
<clipPath id="clip0_6739_121">
<rect width="24" height="24" fill="white" transform="translate(0.5 -0.00390625)"/>
</clipPath>
</defs>
</svg>
