<svg width="80" height="80" viewBox="0 0 80 80" fill="none" xmlns="http://www.w3.org/2000/svg">
<g id="warning (2) 1">
<g id="Group">
<g id="Group_2">
<path id="Vector" d="M39.9991 52.8889C38.0547 52.8889 36.4248 54.5188 36.4248 56.4632C36.4248 58.4076 38.0547 60.0375 39.9991 60.0375C41.872 60.0375 43.5734 58.4076 43.4876 56.549C43.5734 54.5045 41.9578 52.8889 39.9991 52.8889Z" fill="#1492E6"/>
<path id="Vector_2" d="M73.0826 65.5563C75.3272 61.6818 75.3415 57.0638 73.1112 53.2036L50.7218 14.4297C48.5057 10.5266 44.5025 8.21045 40.0132 8.21045C35.5239 8.21045 31.5207 10.5409 29.3047 14.4154L6.88672 53.2322C4.65637 57.1353 4.67066 61.7819 6.92961 65.6564C9.15997 69.4881 13.1489 71.7899 17.6096 71.7899H62.3311C66.8061 71.7899 70.8236 69.4595 73.0826 65.5563ZM68.2215 62.7541C66.9777 64.8987 64.7759 66.1711 62.3168 66.1711H17.5953C15.1648 66.1711 12.9773 64.9273 11.7621 62.8256C10.5325 60.6953 10.5182 58.1504 11.7478 56.0058L34.1657 17.2034C35.381 15.0731 37.5541 13.8149 40.0132 13.8149C42.458 13.8149 44.6455 15.0874 45.8608 17.2177L68.2644 56.0201C69.4654 58.1075 69.4511 60.6238 68.2215 62.7541Z" fill="#1492E6"/>
<path id="Vector_3" d="M39.1129 27.7974C37.4115 28.2835 36.3535 29.8276 36.3535 31.7006C36.4393 32.83 36.5108 33.9738 36.5966 35.1033C36.8396 39.4067 37.0827 43.6244 37.3257 47.9278C37.4115 49.3861 38.541 50.4441 39.9993 50.4441C41.4576 50.4441 42.6014 49.3147 42.6729 47.8421C42.6729 46.9556 42.6729 46.1407 42.7586 45.24C42.9159 42.4806 43.0875 39.7213 43.2447 36.9619C43.3305 35.1748 43.4878 33.3876 43.5736 31.6005C43.5736 30.9571 43.4878 30.3852 43.2447 29.8133C42.5156 28.2121 40.8142 27.3971 39.1129 27.7974Z" fill="#1492E6"/>
</g>
</g>
</g>
</svg>
