<svg width="24" height="24" viewBox="0 0 24 24" fill="none" xmlns="http://www.w3.org/2000/svg">
<path d="M22.9999 17.9188C23.0199 18.6688 22.8199 19.3788 22.4599 19.9888C22.2599 20.3488 21.9899 20.6789 21.6899 20.9489C20.9999 21.5889 20.0899 21.9789 19.0799 22.0089C17.6199 22.0389 16.3299 21.2889 15.6199 20.1389C15.2399 19.5489 15.0099 18.8389 14.9999 18.0889C14.9699 16.8289 15.5299 15.6889 16.4299 14.9389C17.1099 14.3789 17.9699 14.0289 18.9099 14.0089C21.1199 13.9589 22.9499 15.7088 22.9999 17.9188Z" stroke="#292D32" stroke-width="1.5" stroke-miterlimit="10" stroke-linecap="round" stroke-linejoin="round"/>
<path d="M17.4399 18.0386L18.45 18.9985L20.5399 16.9785" stroke="#292D32" stroke-width="1.5" stroke-linecap="round" stroke-linejoin="round"/>
<path d="M3.17017 7.44922L12.0002 12.5592L20.7701 7.47919" stroke="#292D32" stroke-width="1.5" stroke-linecap="round" stroke-linejoin="round"/>
<path d="M12.0002 21.6188V12.5488" stroke="#292D32" stroke-width="1.5" stroke-linecap="round" stroke-linejoin="round"/>
<path d="M21.6101 9.17879V14.8388C21.6101 14.8888 21.6101 14.9288 21.6001 14.9788C20.9001 14.3688 20.0001 14.0088 19.0001 14.0088C18.0601 14.0088 17.1901 14.3388 16.5001 14.8888C15.5801 15.6188 15.0001 16.7488 15.0001 18.0088C15.0001 18.7588 15.2101 19.4688 15.5801 20.0688C15.6701 20.2288 15.7801 20.3788 15.9001 20.5188L14.0701 21.5288C12.9301 22.1688 11.0701 22.1688 9.93011 21.5288L4.59012 18.5688C3.38012 17.8988 2.39014 16.2188 2.39014 14.8388V9.17879C2.39014 7.79879 3.38012 6.11881 4.59012 5.44881L9.93011 2.48879C11.0701 1.84879 12.9301 1.84879 14.0701 2.48879L19.4101 5.44881C20.6201 6.11881 21.6101 7.79879 21.6101 9.17879Z" stroke="#292D32" stroke-width="1.5" stroke-linecap="round" stroke-linejoin="round"/>
</svg>
