<svg width="18" height="19" viewBox="0 0 18 19" fill="none" xmlns="http://www.w3.org/2000/svg">
<g clip-path="url(#clip0_10873_2884)">
<path fill-rule="evenodd" clip-rule="evenodd" d="M12.2237 13.7679C12.6732 13.3159 13.373 12.5508 13.8034 12.0825C14.2338 11.6143 18.8672 14.754 17.8561 15.6591L15.4834 17.7832C10.9509 21.8407 -3.34073 7.54904 0.716754 3.01662L2.84083 0.64393C3.74592 -0.367094 6.88573 4.26618 6.41745 4.6966C5.94917 5.12705 5.18417 5.82684 4.73206 6.27628C3.12046 7.87842 10.6215 15.3795 12.2237 13.7679ZM13.5 0.5C11.0147 0.5 8.99999 2.5147 8.99999 5C8.99999 7.4853 11.0147 9.5 13.5 9.5C15.9853 9.5 18 7.4853 18 5C18 2.5147 15.9853 0.5 13.5 0.5ZM15.1319 3.23273L12.87 5.49461L11.8681 4.49273C11.6338 4.25845 11.254 4.25845 11.0196 4.49273C10.7854 4.72701 10.7854 5.10687 11.0196 5.34116L12.4458 6.76727C12.68 7.00155 13.0599 7.00155 13.2942 6.76727L15.9803 4.08116C16.2146 3.84687 16.2146 3.46701 15.9803 3.23273C15.746 2.99845 15.3662 2.99845 15.1319 3.23273Z" fill="#000000"/>
</g>
<defs>
<clipPath id="clip0_10873_2884">
<rect width="18" height="18" fill="white" transform="translate(0 0.5)"/>
</clipPath>
</defs>
</svg>
