<svg width="25" height="25" viewBox="0 0 25 25" fill="none" xmlns="http://www.w3.org/2000/svg">
<path d="M12.8152 23.4531C6.88519 23.4531 2.06519 18.6331 2.06519 12.7031C2.06519 6.77313 6.88519 1.95312 12.8152 1.95312C18.7452 1.95312 23.5652 6.77313 23.5652 12.7031C23.5652 18.6331 18.7452 23.4531 12.8152 23.4531ZM12.8152 3.45312C7.71519 3.45312 3.56519 7.60313 3.56519 12.7031C3.56519 17.8031 7.71519 21.9531 12.8152 21.9531C17.9152 21.9531 22.0652 17.8031 22.0652 12.7031C22.0652 7.60313 17.9152 3.45312 12.8152 3.45312Z" fill="#058430"/>
<path d="M16.5252 16.6329C16.3952 16.6329 16.2652 16.6029 16.1452 16.5229L13.0452 14.6729C12.2752 14.2129 11.7052 13.2029 11.7052 12.3129V8.21289C11.7052 7.80289 12.0452 7.46289 12.4552 7.46289C12.8652 7.46289 13.2052 7.80289 13.2052 8.21289V12.3129C13.2052 12.6729 13.5052 13.2029 13.8152 13.3829L16.9152 15.2329C17.2752 15.4429 17.3852 15.9029 17.1752 16.2629C17.0252 16.5029 16.7752 16.6329 16.5252 16.6329Z" fill="#058430"/>
</svg>
