<svg width="25" height="25" viewBox="0 0 25 25" fill="none" xmlns="http://www.w3.org/2000/svg">
<g id="vuesax/linear/dollar-square">
<g id="dollar-square">
<path id="Vector" d="M9.08386 14.8582C9.08386 16.1482 10.0739 17.1882 11.3039 17.1882H13.8139C14.8839 17.1882 15.7539 16.2782 15.7539 15.1582C15.7539 13.9382 15.2239 13.5082 14.4339 13.2282L10.4039 11.8282C9.61386 11.5482 9.08386 11.1182 9.08386 9.89816C9.08386 8.77816 9.95386 7.86816 11.0239 7.86816H13.5339C14.7639 7.86816 15.7539 8.90816 15.7539 10.1982" stroke="#058430" stroke-width="1.5" stroke-linecap="round" stroke-linejoin="round"/>
<path id="Vector_2" d="M12.412 6.52832V18.5283" stroke="#058430" stroke-width="1.5" stroke-linecap="round" stroke-linejoin="round"/>
<path id="Vector_3" d="M15.412 22.5283H9.41199C4.41199 22.5283 2.41199 20.5283 2.41199 15.5283V9.52832C2.41199 4.52832 4.41199 2.52832 9.41199 2.52832H15.412C20.412 2.52832 22.412 4.52832 22.412 9.52832V15.5283C22.412 20.5283 20.412 22.5283 15.412 22.5283Z" stroke="#058430" stroke-width="1.5" stroke-linecap="round" stroke-linejoin="round"/>
</g>
</g>
</svg>
