<svg width="24" height="25" viewBox="0 0 24 25" fill="none" xmlns="http://www.w3.org/2000/svg">
<path fill-rule="evenodd" clip-rule="evenodd" d="M10.1722 1.27182L10.8107 2.95346C10.8299 3.00399 10.8746 3.03647 10.9286 3.0391L12.7252 3.12666C12.8474 3.13262 12.8974 3.28655 12.8021 3.36319L11.4001 4.49007C11.3579 4.52391 11.3408 4.57646 11.355 4.62863L11.8269 6.36436C11.8591 6.4824 11.7281 6.57755 11.6258 6.51052L10.1207 5.52535C10.0755 5.49572 10.0203 5.49572 9.97505 5.52535L8.47008 6.51052C8.36771 6.57755 8.23679 6.4824 8.2689 6.36436L8.74079 4.62858C8.75494 4.57641 8.73793 4.52386 8.69579 4.49002L7.29375 3.36315C7.19841 3.28651 7.24843 3.13257 7.37063 3.12662L9.16725 3.03905C9.22125 3.03643 9.26593 3.00394 9.28514 2.95341L9.92363 1.27177C9.96671 1.1581 10.1291 1.1581 10.1722 1.27182ZM18.8588 15.514C21.1156 15.514 22.9451 17.3435 22.9451 19.6003C22.9451 21.857 21.1156 23.6865 18.8588 23.6865C16.6021 23.6865 14.7726 21.857 14.7726 19.6003C14.7726 17.3435 16.6021 15.514 18.8588 15.514ZM18.3221 19.9607L17.4091 19.0477C17.1725 18.811 16.7886 18.811 16.5519 19.0477C16.3153 19.2843 16.3153 19.6681 16.5519 19.9048L17.8949 21.2477C18.1315 21.4843 18.5153 21.4843 18.752 21.2477C19.5614 20.4383 20.3617 19.6197 21.1674 18.8065C21.4023 18.5694 21.4016 18.1868 21.1648 17.9513C20.9279 17.7157 20.5442 17.7164 20.309 17.9539L18.3221 19.9607ZM3.32302 21.4932L14.4073 21.4932C14.1597 20.9118 14.0227 20.272 14.0227 19.6003C14.0227 18.5786 14.3398 17.6311 14.8805 16.8503C13.5965 15.7055 11.9036 15.0096 10.048 15.0096C6.47597 15.0096 3.5063 17.5875 2.89721 20.9842C2.8493 21.251 3.05194 21.4932 3.32302 21.4932ZM10.048 7.19396C12.0767 7.19396 13.7214 8.83861 13.7214 10.8674C13.7214 12.8961 12.0767 14.5408 10.048 14.5408C8.01924 14.5408 6.37458 12.8961 6.37458 10.8674C6.37454 8.83861 8.01919 7.19396 10.048 7.19396ZM16.3611 3.65213C16.3179 3.53841 16.1555 3.53841 16.1123 3.65213L15.4739 5.33377C15.4547 5.38435 15.41 5.41679 15.356 5.41941L13.5593 5.50697C13.4371 5.51293 13.3871 5.66686 13.4825 5.74351L14.8845 6.87038C14.9266 6.90427 14.9437 6.95677 14.9295 7.00894L14.4576 8.74472C14.4255 8.8628 14.5564 8.95791 14.6588 8.89088L16.1638 7.90571C16.209 7.87608 16.2642 7.87608 16.3095 7.90571L17.8145 8.89088C17.9168 8.95791 18.0478 8.86275 18.0157 8.74472L17.5437 7.00899C17.5295 6.95682 17.5466 6.90432 17.5887 6.87043L18.9908 5.74355C19.0861 5.66691 19.0361 5.51297 18.9139 5.50702L17.1173 5.41946C17.0633 5.41683 17.0186 5.38435 16.9994 5.33382L16.3611 3.65213ZM3.98335 3.65213C3.94018 3.53841 3.7778 3.53841 3.73468 3.65213L3.09619 5.33377C3.07702 5.38435 3.0323 5.41679 2.9783 5.41941L1.18168 5.50697C1.05947 5.51293 1.00946 5.66686 1.1048 5.74351L2.50683 6.87038C2.54897 6.90427 2.56604 6.95677 2.55183 7.00894L2.07994 8.74472C2.04783 8.8628 2.17875 8.95791 2.28113 8.89088L3.7861 7.90571C3.83133 7.87608 3.88655 7.87608 3.93179 7.90571L5.4368 8.89088C5.53918 8.95791 5.6701 8.86275 5.63799 8.74472L5.1661 7.00899C5.1519 6.95682 5.16896 6.90432 5.2111 6.87043L6.61313 5.74355C6.70847 5.66691 6.65846 5.51297 6.53625 5.50702L4.73963 5.41946C4.68563 5.41683 4.64096 5.38435 4.62174 5.33382L3.98335 3.65213Z" fill="black"/>
</svg>
