<svg width="20" height="21" viewBox="0 0 20 21" fill="none" xmlns="http://www.w3.org/2000/svg">
<g clip-path="url(#clip0_10873_2886)">
<path d="M16.668 3.39062C14.8281 3.39062 13.3359 4.88281 13.3359 6.72266C13.3359 8.5625 14.8281 10.0547 16.668 10.0547C18.5078 10.0547 20 8.5625 20 6.72266C20 4.88281 18.5078 3.39062 16.668 3.39062ZM18.5781 5.76953L16.1992 8.14844C16.0703 8.27734 15.8594 8.27734 15.7266 8.14844L14.7539 7.17578C14.625 7.04687 14.625 6.83594 14.7539 6.70312L14.7578 6.69531C14.8828 6.57031 15.0898 6.57031 15.2148 6.69531L15.957 7.44141L18.1016 5.29688C18.2305 5.16797 18.4414 5.16797 18.5742 5.29688C18.707 5.42578 18.707 5.63672 18.5781 5.76953ZM12.5 11.4414L18.082 17.0234C17.7188 17.3867 17.2188 17.6094 16.668 17.6094H2C1.44922 17.6094 0.949219 17.3867 0.585938 17.0234L6.16797 11.4414L7.64453 12.918C8.09766 13.3711 8.69531 13.6172 9.33594 13.6172C9.97656 13.6172 10.5742 13.3672 11.0273 12.918L12.5 11.4414ZM18.668 9.86328V15.6133C18.668 16.0234 18.543 16.4062 18.332 16.7227L12.7734 11.168L14.3242 9.61719C14.9648 10.1367 15.7773 10.4453 16.6641 10.4453C17.4023 10.4453 18.0898 10.2305 18.668 9.86328ZM5.89062 11.168L0.335938 16.7227C0.125 16.4062 0 16.0234 0 15.6094V6.72266C0 6.3125 0.125 5.92969 0.335938 5.61328L5.89062 11.168ZM14.0352 9.35547L10.75 12.6445C9.96875 13.4258 8.70312 13.4258 7.92188 12.6445L0.585938 5.30859C0.949219 4.94531 1.44922 4.72266 2 4.72266H13.5273C13.1562 5.30078 12.9414 5.98828 12.9414 6.72266C12.9414 7.75 13.3594 8.67969 14.0352 9.35547Z" fill="#000000"/>
</g>
<defs>
<clipPath id="clip0_10873_2886">
<rect width="20" height="20" fill="white" transform="translate(0 0.5)"/>
</clipPath>
</defs>
</svg>
