<svg width="25" height="25" viewBox="0 0 25 25" fill="none" xmlns="http://www.w3.org/2000/svg">
<g id="check (2) 1" clip-path="url(#clip0_10862_2788)">
<path id="Vector" fill-rule="evenodd" clip-rule="evenodd" d="M11.9925 1.90418C12.1868 1.67998 12.4696 1.55078 12.7666 1.55078C13.0635 1.55078 13.3464 1.67998 13.5407 1.90418L14.8354 3.39759C15.0629 3.65979 15.3571 3.85466 15.6872 3.96215C16.0172 4.0691 16.3701 4.08429 16.7077 4.00613L18.6332 3.55881C18.9226 3.4915 19.2271 3.55338 19.4671 3.72817C19.7076 3.90244 19.8606 4.17332 19.8862 4.46919L20.0555 6.43812C20.0854 6.78393 20.2092 7.11452 20.4127 7.39518C20.6168 7.67583 20.8932 7.89569 21.2129 8.03087L23.0331 8.80064C23.3067 8.91626 23.5168 9.14535 23.6085 9.42817C23.7003 9.71047 23.665 10.0194 23.5119 10.274L22.4913 11.9666C22.3127 12.2635 22.2177 12.6039 22.2177 12.9508C22.2177 13.2977 22.3127 13.638 22.4913 13.935L23.5119 15.6276C23.665 15.8822 23.7003 16.1911 23.6085 16.4734C23.5168 16.7562 23.3067 16.9853 23.0331 17.1009L21.2129 17.8707C20.8932 18.0059 20.6168 18.2257 20.4127 18.5064C20.2092 18.787 20.0854 19.1176 20.0555 19.4634L19.8862 21.4324C19.8606 21.7282 19.7076 21.9991 19.4671 22.1734C19.2271 22.3482 18.9226 22.4101 18.6332 22.3427L16.7077 21.8954C16.3701 21.8173 16.0172 21.8325 15.6872 21.9394C15.3571 22.0469 15.0629 22.2418 14.8354 22.504L13.5407 23.9974C13.3464 24.2216 13.0635 24.3508 12.7666 24.3508C12.4696 24.3508 12.1868 24.2216 11.9925 23.9974L10.6978 22.504C10.4703 22.2418 10.1761 22.0469 9.84601 21.9394C9.51595 21.8325 9.1631 21.8173 8.82544 21.8954L6.89993 22.3427C6.61059 22.4101 6.30604 22.3482 6.06611 22.1734C5.82561 21.9991 5.67253 21.7282 5.64702 21.4324L5.47764 19.4634C5.44779 19.1176 5.32402 18.787 5.12045 18.5064C4.91633 18.2257 4.64001 18.0059 4.32028 17.8707L2.50008 17.1009C2.22648 16.9853 2.01638 16.7562 1.92465 16.4734C1.83291 16.1911 1.86819 15.8822 2.02127 15.6276L3.04184 13.935C3.22045 13.638 3.31544 13.2977 3.31544 12.9508C3.31544 12.6039 3.22045 12.2635 3.04184 11.9666L2.02127 10.274C1.86819 10.0194 1.83291 9.71047 1.92465 9.42817C2.01638 9.14535 2.22648 8.91626 2.50008 8.80064L4.32028 8.03087C4.64001 7.89569 4.91633 7.67583 5.12045 7.39518C5.32402 7.11452 5.44779 6.78393 5.47764 6.43812L5.64702 4.46919C5.67253 4.17332 5.82561 3.90244 6.06611 3.72817C6.30604 3.55338 6.61059 3.4915 6.89993 3.55881L8.82544 4.00613C9.1631 4.08429 9.51595 4.0691 9.84601 3.96215C10.1761 3.85466 10.4703 3.65979 10.6978 3.39759L11.9925 1.90418ZM7.48513 13.3465L10.7423 16.6037C10.9545 16.8154 11.2982 16.8154 11.5099 16.6037L18.048 10.0655C18.2598 9.85379 18.2598 9.50962 18.048 9.29789C17.8363 9.08619 17.4922 9.08619 17.2804 9.29789L11.1261 15.4523L8.25273 12.5789C8.04102 12.3667 7.69685 12.3667 7.48513 12.5789C7.27342 12.7906 7.27342 13.1348 7.48513 13.3465Z" fill="#1492E6"/>
</g>
<defs>
<clipPath id="clip0_10862_2788">
<rect width="24" height="24" fill="white" transform="translate(0.766602 0.951172)"/>
</clipPath>
</defs>
</svg>
