<svg xmlns="http://www.w3.org/2000/svg" viewBox="0 0 48 48"><title>26-gold medal</title><g id="_26-gold_medal" data-name="26-gold medal"><circle cx="24" cy="24" r="23" style="fill:#ffdf64"/><path d="M24,3A21,21,0,1,0,45,24,21,21,0,0,0,24,3Zm0,41A20,20,0,1,1,44,24,20,20,0,0,1,24,44Z" style="fill:#fffcbd"/><path d="M10,18A19.886,19.886,0,0,1,13.19,7.19,19.989,19.989,0,1,0,40.81,34.81,19.98,19.98,0,0,1,10,18Z" style="fill:#ffce54"/><path d="M24,1A23,23,0,1,0,47,24,23,23,0,0,0,24,1Zm0,44A21,21,0,1,1,45,24,21,21,0,0,1,24,45Z" style="fill:#ffce54"/><path d="M39.62,23.13l-2.39.34a2.441,2.441,0,0,1-2.81-1.63L34,19.87l1.86-.26a2.614,2.614,0,0,1,2.55,1.02l1,1.51.3-1.7a2.216,2.216,0,0,1,1.97-1.67l1.86-.27.42,1.97A2.051,2.051,0,0,1,42,22.78Z" style="fill:#fea740"/><path d="M39.54,10.64a2.258,2.258,0,0,1-.28,3.04l-1.56,1.4-1.56,1.4a1.931,1.931,0,0,1-2.85-.23L32,14.61l1.22-1.09a1.918,1.918,0,0,1,2.36-.21l1.47.94.01.01-.01-.01-.62-1.71a2.287,2.287,0,0,1,.6-2.45L38.25,9Z" style="fill:#fea740"/><path d="M33.28,7.72c1.06,1.06.64,3.2.64,3.2s-2.14.42-3.2-.64-.64-3.2-.64-3.2S32.22,6.66,33.28,7.72Z" style="fill:#fea740"/><path d="M33.09,35.91l-1.48-1.48a2.094,2.094,0,0,1,0-2.95L33.09,30l1.15,1.15a2.085,2.085,0,0,1,.39,2.41l-.8,1.61,1.61-.8a2.085,2.085,0,0,1,2.41.39L39,35.91l-1.48,1.48a2.094,2.094,0,0,1-2.95,0Z" style="fill:#fea740"/><path d="M39.46,27.58a2.012,2.012,0,0,1,2.06-1.1l1.48.24-.38,2.03a2.065,2.065,0,0,1-2.28,1.73l-1.89-.31-1.9-.3a1.944,1.944,0,0,1-1.51-2.34l.38-2.03,1.48.24a1.863,1.863,0,0,1,1.53,1.68l.21,1.74Z" style="fill:#fea740"/><path d="M28,40l1.59-.66a2.537,2.537,0,0,1,3.08.16L34,40.84l-2.14,2.13a3.218,3.218,0,0,1-2.7,1,1.89,1.89,0,0,1-1.4-1.17l-.44-1.06a2.106,2.106,0,0,0-1.06-1.06l-1.06-.44a1.89,1.89,0,0,1-1.17-1.4,2.561,2.561,0,0,1-.03-.39,3.337,3.337,0,0,1,1.03-2.31L27.16,34l1.34,1.33a2.537,2.537,0,0,1,.16,3.08Z" style="fill:#fea740"/><path d="M39.26,13.68a2.258,2.258,0,0,0,.28-3.04L38.25,9l-1.22,1.09a2.287,2.287,0,0,0-.6,2.45l.62,1.71.01.01-.01-.01-.116-.074.787.885Z" style="fill:#ffb844"/><path d="M33.28,7.72c-1.06-1.06-3.2-.64-3.2-.64h0l3.84,3.84S34.34,8.78,33.28,7.72Z" style="fill:#ffb844"/><path d="M43.96,20.47l-.42-1.97-1.86.27a2.216,2.216,0,0,0-1.97,1.67l-.269,1.526.13,1.171.049-.007L42,22.78A2.051,2.051,0,0,0,43.96,20.47Z" style="fill:#ffb844"/><path d="M41.52,26.48a2.012,2.012,0,0,0-2.06,1.1l-.82,1.58h0l-.169,1.013,1.869.307a2.065,2.065,0,0,0,2.28-1.73L43,26.72Z" style="fill:#ffb844"/><path d="M37.85,34.76a2.085,2.085,0,0,0-2.41-.39l-1.61.8-.74.74,1.48,1.48a2.094,2.094,0,0,0,2.95,0L39,35.91Z" style="fill:#ffb844"/><path d="M32.67,39.5a2.537,2.537,0,0,0-3.08-.16L28,40l-1.112,1.112a2.1,2.1,0,0,1,.432.628l.44,1.06a1.89,1.89,0,0,0,1.4,1.17,3.218,3.218,0,0,0,2.7-1L34,40.84Z" style="fill:#ffb844"/><path d="M8.379,23.13l2.39.34a2.441,2.441,0,0,0,2.81-1.63L14,19.87l-1.86-.26a2.614,2.614,0,0,0-2.55,1.02l-1,1.51-.3-1.7a2.216,2.216,0,0,0-1.97-1.67l-1.86-.27-.42,1.97A2.051,2.051,0,0,0,6,22.78Z" style="fill:#ffb844"/><path d="M8.459,10.64a2.258,2.258,0,0,0,.28,3.04l1.56,1.4,1.56,1.4a1.931,1.931,0,0,0,2.85-.23L16,14.61l-1.22-1.09a1.918,1.918,0,0,0-2.36-.21l-1.47.94-.01.01.01-.01.62-1.71a2.287,2.287,0,0,0-.6-2.45L9.749,9Z" style="fill:#ffb844"/><path d="M14.719,7.72c-1.06,1.06-.64,3.2-.64,3.2s2.14.42,3.2-.64.64-3.2.64-3.2S15.779,6.66,14.719,7.72Z" style="fill:#ffb844"/><path d="M14.909,35.91l1.48-1.48a2.094,2.094,0,0,0,0-2.95L14.909,30l-1.15,1.15a2.085,2.085,0,0,0-.39,2.41l.8,1.61-1.61-.8a2.085,2.085,0,0,0-2.41.39L9,35.91l1.48,1.48a2.094,2.094,0,0,0,2.95,0Z" style="fill:#ffb844"/><path d="M8.539,27.58a2.012,2.012,0,0,0-2.06-1.1L5,26.72l.38,2.03a2.065,2.065,0,0,0,2.28,1.73l1.89-.31,1.9-.3a1.944,1.944,0,0,0,1.51-2.34l-.38-2.03-1.48.24a1.863,1.863,0,0,0-1.53,1.68l-.21,1.74Z" style="fill:#ffb844"/><path d="M20,40l-1.59-.66a2.537,2.537,0,0,0-3.08.16L14,40.84l2.14,2.13a3.218,3.218,0,0,0,2.7,1,1.89,1.89,0,0,0,1.4-1.17l.44-1.06a2.106,2.106,0,0,1,1.06-1.06l1.06-.44a1.89,1.89,0,0,0,1.17-1.4,2.561,2.561,0,0,0,.03-.39,3.337,3.337,0,0,0-1.03-2.31L20.839,34,19.5,35.33a2.537,2.537,0,0,0-.16,3.08Z" style="fill:#ffb844"/><path d="M8.739,13.68a2.258,2.258,0,0,1-.28-3.04L9.749,9l1.22,1.09a2.287,2.287,0,0,1,.6,2.45l-.62,1.71-.01.01.01-.01.116-.074-.787.885Z" style="fill:#fea740"/><path d="M14.719,7.72c1.06-1.06,3.2-.64,3.2-.64h0l-3.84,3.84S13.659,8.78,14.719,7.72Z" style="fill:#fea740"/><path d="M4.039,20.47l.42-1.97,1.86.27a2.216,2.216,0,0,1,1.97,1.67l.27,1.526-.13,1.171-.05-.007L6,22.78A2.051,2.051,0,0,1,4.039,20.47Z" style="fill:#fea740"/><path d="M6.479,26.48a2.012,2.012,0,0,1,2.06,1.1l.82,1.58h0l.169,1.013-1.869.307a2.065,2.065,0,0,1-2.28-1.73L5,26.72Z" style="fill:#fea740"/><path d="M10.149,34.76a2.085,2.085,0,0,1,2.41-.39l1.61.8.74.74-1.48,1.48a2.094,2.094,0,0,1-2.95,0L9,35.91Z" style="fill:#fea740"/><path d="M15.329,39.5a2.537,2.537,0,0,1,3.08-.16L20,40l1.113,1.112a2.1,2.1,0,0,0-.433.628l-.44,1.06a1.89,1.89,0,0,1-1.4,1.17,3.218,3.218,0,0,1-2.7-1L14,40.84Z" style="fill:#fea740"/><ellipse cx="30.684" cy="20.695" rx="1.642" ry="2.286" transform="translate(-5.644 27.771) rotate(-45.02)" style="fill:#f6fafd"/><ellipse cx="31.682" cy="24.708" rx="0.825" ry="1.148" transform="translate(-8.19 29.653) rotate(-45.02)" style="fill:#f6fafd"/><ellipse cx="15.427" cy="25.208" rx="0.413" ry="0.574" transform="translate(-13.309 18.302) rotate(-45.02)" style="fill:#f6fafd"/><path d="M45.668,20.173l1.97-.346c-.122-.7-.278-1.4-.463-2.088l-1.931.522C45.414,18.889,45.556,19.531,45.668,20.173Z"/><path d="M24,2A22.1,22.1,0,0,1,44.634,16.35l1.875-.7A24.007,24.007,0,0,0,7.3,6.759L8.7,8.2A21.884,21.884,0,0,1,24,2Z"/><path d="M2,24A21.993,21.993,0,0,1,7.322,9.652l-1.516-1.3A24.007,24.007,0,0,0,4.2,37.569L5.85,36.437A21.874,21.874,0,0,1,2,24Z"/><path d="M47.91,21.914l-1.992.172c.054.63.082,1.273.082,1.914A22,22,0,0,1,7.318,38.344L5.8,39.648A24,24,0,0,0,48,24C48,23.3,47.97,22.6,47.91,21.914Z"/><path d="M42.145,23.773A3.447,3.447,0,0,0,44.5,22.384a2.7,2.7,0,0,0,.438-2.125l-.424-1.97a1,1,0,0,0-1.12-.779l-1.858.267a3.563,3.563,0,0,0-1.78.8,21.111,21.111,0,0,0-1.237-2.888l1.41-1.264a3.28,3.28,0,0,0,.4-4.4L39.039,8.382a1,1,0,0,0-.7-.378.982.982,0,0,0-.754.252L36.368,9.349a3.208,3.208,0,0,0-.969,1.7c-.173-.2-.313-.356-.426-.479a4.516,4.516,0,0,0-.987-3.558c-1.4-1.4-3.825-.969-4.1-.914a1,1,0,0,0-.788.789c-.054.272-.483,2.7.913,4.1A4.119,4.119,0,0,0,32.946,12c.226,0,.421-.013.6-.029l.148.167a3.036,3.036,0,0,0-1.14.631l-1.218,1.093a1,1,0,0,0-.119,1.362L32.5,16.865a2.921,2.921,0,0,0,2.057,1.124c.087.007.172.011.258.011a2.962,2.962,0,0,0,1.988-.774l.168-.151a19.411,19.411,0,0,1,.759,1.811,3.844,3.844,0,0,0-2.015-.27l-1.858.268a1,1,0,0,0-.835,1.2l.425,1.97A3.319,3.319,0,0,0,36.8,24.5a4.122,4.122,0,0,0,.573-.041l1.3-.187a12.429,12.429,0,0,1-.095,1.28,2.762,2.762,0,0,0-1.524-.8l-1.476-.237a1,1,0,0,0-1.142.8l-.381,2.032a3.1,3.1,0,0,0,.491,2.346,2.781,2.781,0,0,0,1.847,1.161l.278.045c-.267.434-.552.864-.871,1.287a3.069,3.069,0,0,0-.853-1.742L33.8,29.293a1,1,0,0,0-1.414,0L30.9,30.771a3.09,3.09,0,0,0,0,4.369l.98.98q-.867.692-1.846,1.358a3.221,3.221,0,0,0-.837-2.853l-1.331-1.332a1,1,0,0,0-1.414,0L24.32,35.43a4.652,4.652,0,0,0-.32.356,4.652,4.652,0,0,0-.32-.356l-2.137-2.137a1.029,1.029,0,0,0-1.414,0L18.8,34.625a3.221,3.221,0,0,0-.837,2.853q-.978-.667-1.846-1.358l.98-.98a3.089,3.089,0,0,0,0-4.369l-1.478-1.478a1,1,0,0,0-1.414,0l-1.151,1.151a3.066,3.066,0,0,0-.853,1.741c-.319-.423-.6-.852-.87-1.286l.277-.045a2.781,2.781,0,0,0,1.847-1.161,3.1,3.1,0,0,0,.491-2.346l-.381-2.032a1,1,0,0,0-1.142-.8l-1.476.237a2.749,2.749,0,0,0-1.523.8,12.408,12.408,0,0,1-.1-1.28l1.3.187a4.133,4.133,0,0,0,.573.041,3.319,3.319,0,0,0,3.356-2.446l.425-1.97a1,1,0,0,0-.835-1.2l-1.858-.267a3.841,3.841,0,0,0-2.008.265c.231-.629.482-1.237.757-1.8l.163.147A2.964,2.964,0,0,0,13.185,18c.086,0,.171,0,.258-.011A2.919,2.919,0,0,0,15.5,16.864l1.287-1.637a1,1,0,0,0-.119-1.362l-1.219-1.093a3.014,3.014,0,0,0-1.139-.63l.149-.168c.174.016.37.029.6.029a4.117,4.117,0,0,0,2.931-1.018c1.4-1.394.967-3.823.913-4.095a1,1,0,0,0-.788-.789c-.273-.055-2.7-.482-4.1.914a4.516,4.516,0,0,0-.987,3.558c-.113.123-.253.279-.426.479a3.209,3.209,0,0,0-.968-1.7L10.415,8.256A.979.979,0,0,0,9.661,8a1,1,0,0,0-.7.378L7.674,10.02a3.279,3.279,0,0,0,.4,4.4L9.48,15.685a21.111,21.111,0,0,0-1.237,2.888,3.559,3.559,0,0,0-1.78-.8L4.605,17.51a1,1,0,0,0-1.12.779l-.424,1.97A2.7,2.7,0,0,0,3.5,22.384a3.447,3.447,0,0,0,2.356,1.389l1.467.212a15.224,15.224,0,0,0,.086,1.569,2.811,2.811,0,0,0-1.09-.06l-1.477.237A1,1,0,0,0,4.017,26.9L4.4,28.935A3.1,3.1,0,0,0,7.373,31.5a2.765,2.765,0,0,0,.443-.035L9.2,31.241a17.957,17.957,0,0,0,1.367,2.108,3.082,3.082,0,0,0-1.126.7L8.293,35.2a1,1,0,0,0,0,1.414L9.77,38.1a3.09,3.09,0,0,0,4.37,0l.551-.552c.269.217.553.431.836.645a2.953,2.953,0,0,0-.9.61L13.293,40.13a1,1,0,0,0,0,1.414l2.136,2.136A4.318,4.318,0,0,0,18.438,45,3.542,3.542,0,0,0,19,44.956a2.865,2.865,0,0,0,2.156-1.766l.448-1.055a1.061,1.061,0,0,1,.1-.144c.609.31,1.232.616,1.878.916a1,1,0,0,0,.842,0c.646-.3,1.269-.606,1.877-.916a1.024,1.024,0,0,1,.1.145l.447,1.054A2.865,2.865,0,0,0,29,44.956a3.546,3.546,0,0,0,.564.045,4.322,4.322,0,0,0,3.009-1.321l2.136-2.136a1,1,0,0,0,0-1.414L33.375,38.8a2.971,2.971,0,0,0-.9-.61c.283-.214.567-.427.835-.645l.552.552a3.089,3.089,0,0,0,4.369,0l1.478-1.478a1,1,0,0,0,0-1.414l-1.151-1.151a3.1,3.1,0,0,0-1.126-.7A17.957,17.957,0,0,0,38.8,31.241l1.386.223a2.786,2.786,0,0,0,.444.035A3.1,3.1,0,0,0,43.6,28.935l.381-2.032a1,1,0,0,0-.824-1.172l-1.477-.237a2.791,2.791,0,0,0-1.09.058,15.185,15.185,0,0,0,.086-1.567ZM37.7,10.837l.423-.38.626.8a1.268,1.268,0,0,1-.158,1.679l-.722.647-.5-1.379A1.281,1.281,0,0,1,37.7,10.837ZM31.428,9.571A2.29,2.29,0,0,1,31,8a2.351,2.351,0,0,1,1.572.429A2.29,2.29,0,0,1,33,10,2.319,2.319,0,0,1,31.428,9.571Zm4.04,6.166a.965.965,0,0,1-.737.259.937.937,0,0,1-.658-.366l-.708-.9.521-.468a.93.93,0,0,1,1.151-.116l.378.244q.28.417.567.887ZM9.247,11.255l.627-.8.423.38a1.281,1.281,0,0,1,.332,1.364l-.5,1.379-.722-.647A1.268,1.268,0,0,1,9.247,11.255Zm3.716,2.891a.93.93,0,0,1,1.151.115l.521.468-.707.9a.938.938,0,0,1-.659.367.958.958,0,0,1-.736-.259l-.511-.458q.289-.474.572-.895Zm2.465-5.717A2.315,2.315,0,0,1,17,8a2.3,2.3,0,0,1-.428,1.572A2.306,2.306,0,0,1,15,10,2.291,2.291,0,0,1,15.428,8.429Zm-4.868,19.1a.882.882,0,0,1,.7-.808l.515-.083.2,1.074a1.09,1.09,0,0,1-.162.826.794.794,0,0,1-.528.338l-.9.145ZM12,20.6l.8.114-.2.922a1.474,1.474,0,0,1-1.69.846L9.684,22.3l.742-1.128A1.622,1.622,0,0,1,12,20.6Zm-6.859.645a.7.7,0,0,1-.125-.561l.228-1.058.935.135a1.254,1.254,0,0,1,1.129.857l.179,1.014c-.017.117-.033.234-.048.352l-1.3-.188A1.474,1.474,0,0,1,5.141,21.242ZM7.5,29.489a1.074,1.074,0,0,1-1.135-.924l-.192-1.022.463-.074a1,1,0,0,1,1.015.577L8.3,29.291l.027.065Zm6.967,2.369.444-.444.771.771a1.09,1.09,0,0,1,0,1.541l-.743.743-.676-1.353A1.089,1.089,0,0,1,14.466,31.858Zm-1.741,4.823a1.114,1.114,0,0,1-1.54,0l-.771-.771.444-.444a1.086,1.086,0,0,1,1.258-.2l.168.084c.286.3.588.588.9.878Zm13.009.163,1.43-1.43.624.625a1.58,1.58,0,0,1,0,1.874,1.019,1.019,0,0,0-.06.119l-.489,1.183c-.268.152-.547.3-.825.452l-.825-.35a.913.913,0,0,1-.573-.633A2.224,2.224,0,0,1,25.734,36.844Zm-5.465,1.188a1.019,1.019,0,0,0-.06-.119,1.58,1.58,0,0,1,0-1.874l.624-.625,1.43,1.43a2.224,2.224,0,0,1,.715,1.84.91.91,0,0,1-.572.632l-.826.351c-.278-.15-.557-.3-.825-.452Zm-.5,3.322-.448,1.055a.911.911,0,0,1-.633.572,2.23,2.23,0,0,1-1.84-.715l-1.429-1.429.625-.625a1.583,1.583,0,0,1,1.874,0,1.013,1.013,0,0,0,.119.059l1.586.656a1.009,1.009,0,0,0,.179.041l.126.073A3.011,3.011,0,0,0,19.764,41.354Zm4.048-.551c.069-.05.124-.111.188-.166.064.055.119.116.188.166-.064.03-.124.062-.188.093C23.936,40.865,23.876,40.833,23.812,40.8Zm4.57.121,1.586-.656a1.013,1.013,0,0,0,.119-.059,1.584,1.584,0,0,1,1.874,0l.625.625-1.43,1.429a2.229,2.229,0,0,1-1.841.715.912.912,0,0,1-.631-.572l-.447-1.054a3.133,3.133,0,0,0-.16-.317l.126-.073A1.009,1.009,0,0,0,28.382,40.924Zm3.937-8.739.771-.771.444.444a1.089,1.089,0,0,1,.2,1.258l-.676,1.353-.743-.743a1.09,1.09,0,0,1,0-1.541Zm3.565,3.077a1.094,1.094,0,0,1,1.258.2l.444.444-.771.771a1.115,1.115,0,0,1-1.541,0l-.456-.457c.31-.29.613-.582.9-.878Zm4.809-14.647a1.251,1.251,0,0,1,1.129-.857l.934-.135.228,1.058a.7.7,0,0,1-.125.561,1.474,1.474,0,0,1-1,.551l-1.3.188c-.015-.118-.031-.235-.048-.352Zm-3.6,1.864a1.471,1.471,0,0,1-1.689-.846l-.2-.922L36,20.6a1.637,1.637,0,0,1,1.574.58l.741,1.128Zm-.908,6.063a1.09,1.09,0,0,1-.162-.826l.2-1.074.515.083a.882.882,0,0,1,.7.807l.176,1.493-.906-.145A.794.794,0,0,1,36.183,28.542Zm5.182-1.073.463.074-.192,1.022a1.075,1.075,0,0,1-1.135.924l-.831-.133.027-.065.653-1.245A1,1,0,0,1,41.365,27.469Z"/><path d="M24.383,14.076a1,1,0,0,0-1.09.217l-4,4,1.414,1.414L23,17.414V30H20v2h8V30H25V15A1,1,0,0,0,24.383,14.076Z"/></g></svg>