<svg width="40" height="41" viewBox="0 0 40 41" fill="none" xmlns="http://www.w3.org/2000/svg">
<rect y="0.141113" width="40" height="40" rx="6" fill="#CEEBFF"/>
<path d="M20 10.1411C18.0222 10.1411 16.0888 10.7276 14.4443 11.8264C12.7998 12.9252 11.5181 14.487 10.7612 16.3143C10.0043 18.1415 9.8063 20.1522 10.1922 22.092C10.578 24.0318 11.5304 25.8137 12.9289 27.2122C14.3275 28.6107 16.1093 29.5631 18.0491 29.949C19.9889 30.3348 21.9996 30.1368 23.8268 29.3799C25.6541 28.623 27.2159 27.3413 28.3147 25.6968C29.4135 24.0523 30 22.1189 30 20.1411C30 18.8279 29.7413 17.5275 29.2388 16.3143C28.7362 15.101 27.9997 13.9986 27.0711 13.07C26.1425 12.1415 25.0401 11.4049 23.8268 10.9023C22.6136 10.3998 21.3132 10.1411 20 10.1411ZM25.68 19.6811L23.55 21.8611L24.05 24.9611C24.0846 25.1496 24.0644 25.344 23.9917 25.5213C23.9191 25.6986 23.797 25.8512 23.64 25.9611C23.4858 26.0681 23.3046 26.1295 23.1172 26.1383C22.9297 26.1472 22.7436 26.1031 22.58 26.0111L20 24.5611L17.4 25.9911C17.2546 26.0768 17.0888 26.1217 16.92 26.1211C16.7127 26.1227 16.51 26.0598 16.34 25.9411C16.183 25.8312 16.061 25.6786 15.9883 25.5013C15.9156 25.324 15.8954 25.1296 15.93 24.9411L16.44 21.8411L14.3 19.6811C14.1706 19.5493 14.0803 19.3842 14.039 19.2041C13.9978 19.0241 14.0072 18.8362 14.0662 18.6611C14.1252 18.4861 14.2316 18.3309 14.3735 18.2126C14.5154 18.0943 14.6872 18.0177 14.87 17.9911L17.78 17.5411L19.09 14.7611C19.1644 14.5801 19.2902 14.4248 19.452 14.3146C19.6137 14.2044 19.8043 14.1441 20 14.1411C20.1902 14.1398 20.3768 14.1927 20.538 14.2936C20.6992 14.3946 20.8282 14.5394 20.91 14.7111L22.21 17.5411L25.12 17.9911C25.3021 18.0183 25.4732 18.0953 25.6143 18.2135C25.7555 18.3317 25.8613 18.4866 25.92 18.6611C25.9783 18.8367 25.9867 19.025 25.9443 19.2051C25.9019 19.3851 25.8104 19.5499 25.68 19.6811Z" fill="black"/>
</svg>
