<svg width="25" height="25" viewBox="0 0 25 25" fill="none" xmlns="http://www.w3.org/2000/svg">
<g id="vuesax/bold/flag">
<g id="flag">
<path id="Vector" d="M18.5199 13.2055L17.2999 11.9855C17.0099 11.7355 16.8399 11.3655 16.8299 10.9555C16.8099 10.5055 16.9899 10.0555 17.3199 9.72549L18.5199 8.52549C19.5599 7.48549 19.9499 6.48549 19.6199 5.69549C19.2999 4.91549 18.3099 4.48549 16.8499 4.48549H6.3999V3.62549C6.3999 3.21549 6.0599 2.87549 5.6499 2.87549C5.2399 2.87549 4.8999 3.21549 4.8999 3.62549V22.1255C4.8999 22.5355 5.2399 22.8755 5.6499 22.8755C6.0599 22.8755 6.3999 22.5355 6.3999 22.1255V17.2455H16.8499C18.2899 17.2455 19.2599 16.8055 19.5899 16.0155C19.9199 15.2255 19.5399 14.2355 18.5199 13.2055Z" fill="#292D32"/>
</g>
</g>
</svg>
