<svg width="19" height="22" viewBox="0 0 19 22" fill="none" xmlns="http://www.w3.org/2000/svg">
<path id="Vector" d="M15.0778 14.3749C14.0555 14.3749 13.1345 14.8164 12.4953 15.5186L6.74575 11.9576C6.89925 11.5647 6.98439 11.1379 6.98439 10.6914C6.98439 10.2447 6.89925 9.81789 6.74575 9.4251L12.4953 5.86397C13.1345 6.5662 14.0555 7.00782 15.0778 7.00782C17.0035 7.00782 18.5701 5.44123 18.5701 3.51555C18.5701 1.58987 17.0035 0.0234375 15.0778 0.0234375C13.1521 0.0234375 11.5855 1.59003 11.5855 3.51571C11.5855 3.96222 11.6708 4.38903 11.8242 4.78198L6.07477 8.34294C5.43554 7.64071 4.51453 7.19909 3.49228 7.19909C1.56659 7.19909 0 8.76585 0 10.6914C0 12.6171 1.56659 14.1836 3.49228 14.1836C4.51453 14.1836 5.43554 13.7422 6.07477 13.0398L11.8242 16.6008C11.6708 16.9937 11.5855 17.4205 11.5855 17.8672C11.5855 19.7927 13.1521 21.3593 15.0778 21.3593C17.0035 21.3593 18.5701 19.7927 18.5701 17.8672C18.5701 15.9415 17.0035 14.3749 15.0778 14.3749ZM12.8589 3.51571C12.8589 2.29226 13.8543 1.29686 15.0778 1.29686C16.3012 1.29686 17.2966 2.29226 17.2966 3.51571C17.2966 4.73916 16.3012 5.73456 15.0778 5.73456C13.8543 5.73456 12.8589 4.73916 12.8589 3.51571ZM3.49228 12.9102C2.26866 12.9102 1.27326 11.9148 1.27326 10.6914C1.27326 9.46791 2.26866 8.47252 3.49228 8.47252C4.71573 8.47252 5.71096 9.46791 5.71096 10.6914C5.71096 11.9148 4.71573 12.9102 3.49228 12.9102ZM12.8589 17.867C12.8589 16.6436 13.8543 15.6482 15.0778 15.6482C16.3012 15.6482 17.2966 16.6436 17.2966 17.867C17.2966 19.0905 16.3012 20.0859 15.0778 20.0859C13.8543 20.0859 12.8589 19.0905 12.8589 17.867Z" fill="black"/>
</svg>
