<svg width="21" height="12" viewBox="0 0 21 12" fill="none" xmlns="http://www.w3.org/2000/svg">
<path id="Vector" d="M15.2283 1.62687L16.6508 2.95687L11.83 7.4641L8.57997 4.42542C8.1947 4.06521 7.57235 4.06521 7.18708 4.42542L1.2599 9.97633C0.874631 10.3365 0.874631 10.9184 1.2599 11.2786C1.64516 11.6388 2.26752 11.6388 2.65279 11.2786L7.87859 6.38347L11.1287 9.42216C11.5139 9.78237 12.1363 9.78237 12.5215 9.42216L18.0437 4.2684L19.4662 5.5984C19.7725 5.88472 20.3059 5.68153 20.3059 5.27514V1.3036C20.3158 1.04499 20.0985 0.841797 19.8219 0.841797H15.5839C15.1394 0.841797 14.9221 1.34055 15.2283 1.62687Z" fill="#E60379"/>
</svg>
