<svg width="24" height="25" viewBox="0 0 24 25" fill="none" xmlns="http://www.w3.org/2000/svg">
<path d="M9 22.9033H15C20 22.9033 22 20.9033 22 15.9033V9.90332C22 4.90332 20 2.90332 15 2.90332H9C4 2.90332 2 4.90332 2 9.90332V15.9033C2 20.9033 4 22.9033 9 22.9033Z" stroke="#292D32" stroke-width="1.5" stroke-linecap="round" stroke-linejoin="round"/>
<path d="M9.09998 12.9033V11.4233C9.09998 9.51331 10.45 8.74331 12.1 9.69331L13.38 10.4333L14.66 11.1733C16.31 12.1233 16.31 13.6833 14.66 14.6333L13.38 15.3733L12.1 16.1133C10.45 17.0633 9.09998 16.2833 9.09998 14.3833V12.9033Z" stroke="#292D32" stroke-width="1.5" stroke-miterlimit="10" stroke-linecap="round" stroke-linejoin="round"/>
</svg>
