<svg xmlns="http://www.w3.org/2000/svg" width="35.305" height="35.051" viewBox="0 0 35.305 35.051">
  <g id="Check_mark" data-name="Check mark" transform="translate(-1866.888 -734.964)">
    <path id="Icon" d="M1940.421,750.046c-1.625-.345,3.193-3.678,5.991-3.2,1.659.281,4.175,3.128,5.307,5.906.932,2.286,1.534-6.108,12.3-14.987,3.487-2.876,5.354-3.083,5.352-2.59s-1.7,1.981-3.078,3.518c-6.72,7.469-10.768,17.246-11.255,20.544-.284,1.919-4.463,4.256-5.062,2.525C1947.734,755.283,1943.544,750.709,1940.421,750.046Z" transform="translate(-67.178)" fill="#3ad813"/>
    <path id="Frame" d="M1883.71,785.684a16.823,16.823,0,1,1,4.179-33.122,1.071,1.071,0,1,1-.531,2.075,14.667,14.667,0,1,0,10.143,9.178,1.071,1.071,0,0,1,2.011-.736,16.818,16.818,0,0,1-15.8,22.6Z" transform="translate(0 -15.669)" fill="#303030"/>
  </g>
</svg>
